<svg width="497" height="329" viewBox="0 0 497 329" fill="none" xmlns="http://www.w3.org/2000/svg">
<g filter="url(#filter0_d_57_141)">
<g filter="url(#filter1_d_57_141)">
<rect x="6.32959" y="9.34027" width="483.93" height="88.7205" rx="4.05233" transform="rotate(-1.10596 6.32959 9.34027)" fill="white"/>
</g>
<circle cx="34.6594" cy="32.64" r="10.1308" transform="rotate(-1.10596 34.6594 32.64)" fill="url(#paint0_linear_57_141)"/>
<path fill-rule="evenodd" clip-rule="evenodd" d="M38.6791 29.8396C38.8807 30.0336 38.8869 30.3543 38.6929 30.5559L34.0573 35.3739C33.8634 35.5755 33.5427 35.5817 33.3411 35.3878L30.5879 32.7389C30.3863 32.5449 30.3801 32.2242 30.5741 32.0226C30.7681 31.821 31.0887 31.8148 31.2903 32.0088L33.6785 34.3065L37.9629 29.8535C38.1568 29.6519 38.4775 29.6457 38.6791 29.8396Z" fill="white"/>
<rect x="57.4751" y="26.1002" width="149.212" height="13.7113" rx="4.8393" transform="rotate(-1.10596 57.4751 26.1002)" fill="#E2E2E2"/>
<rect x="57.8645" y="46.2604" width="408.114" height="11.2917" rx="4.8393" transform="rotate(-1.10596 57.8645 46.2604)" fill="#E2E2E2"/>
<rect x="58.207" y="64.001" width="408.114" height="11.2917" rx="4.8393" transform="rotate(-1.10596 58.207 64.001)" fill="#E2E2E2"/>
</g>
<g filter="url(#filter2_d_57_141)">
<g filter="url(#filter3_d_57_141)">
<rect x="8.53101" y="114.352" width="483.93" height="88.7205" rx="4.05233" transform="rotate(0.376872 8.53101 114.352)" fill="white"/>
</g>
<circle cx="36.2485" cy="138.377" r="10.1308" transform="rotate(0.376872 36.2485 138.377)" fill="url(#paint1_linear_57_141)"/>
<path fill-rule="evenodd" clip-rule="evenodd" d="M40.3392 135.682C40.5357 135.881 40.5336 136.201 40.3345 136.398L35.5758 141.094C35.3767 141.291 35.056 141.289 34.8595 141.09L32.1757 138.37C31.9792 138.171 31.9813 137.851 32.1804 137.654C32.3796 137.458 32.7003 137.46 32.8968 137.659L35.2247 140.018L39.6229 135.677C39.822 135.48 40.1427 135.482 40.3392 135.682Z" fill="white"/>
<rect x="59.2258" y="132.43" width="149.212" height="13.7113" rx="4.8393" transform="rotate(0.376872 59.2258 132.43)" fill="#E2E2E2"/>
<rect x="59.0933" y="152.593" width="408.114" height="11.2917" rx="4.8393" transform="rotate(0.376872 59.0933 152.593)" fill="#E2E2E2"/>
<rect x="58.9763" y="170.337" width="408.114" height="11.2917" rx="4.8393" transform="rotate(0.376872 58.9763 170.337)" fill="#E2E2E2"/>
</g>
<g filter="url(#filter4_d_57_141)">
<g filter="url(#filter5_d_57_141)">
<rect x="4" y="232.341" width="483.93" height="88.7205" rx="4.05233" transform="rotate(-1.39428 4 232.341)" fill="white"/>
</g>
<circle cx="32.4468" cy="255.498" r="10.1308" transform="rotate(-1.39428 32.4468 255.498)" fill="#BDBDBD"/>
<path fill-rule="evenodd" clip-rule="evenodd" d="M36.4524 252.678C36.6549 252.871 36.6627 253.191 36.4698 253.394L31.8585 258.235C31.6656 258.438 31.3449 258.445 31.1424 258.253L28.3759 255.617C28.1733 255.425 28.1655 255.104 28.3585 254.901C28.5514 254.699 28.872 254.691 29.0746 254.884L31.4743 257.17L35.7362 252.695C35.9292 252.492 36.2498 252.485 36.4524 252.678Z" fill="white"/>
<rect x="55.2292" y="248.844" width="149.212" height="13.7113" rx="4.8393" transform="rotate(-1.39428 55.2292 248.844)" fill="#E2E2E2"/>
<rect x="55.72" y="269.001" width="408.114" height="11.2917" rx="4.8393" transform="rotate(-1.39428 55.72 269.001)" fill="#E2E2E2"/>
<rect x="56.1519" y="286.74" width="408.114" height="11.2917" rx="4.8393" transform="rotate(-1.39428 56.1519 286.74)" fill="#E2E2E2"/>
</g>
<defs>
<filter id="filter0_d_57_141" x="2.40698" y="0.0772095" width="493.397" height="105.89" filterUnits="userSpaceOnUse" color-interpolation-filters="sRGB">
<feFlood flood-opacity="0" result="BackgroundImageFix"/>
<feColorMatrix in="SourceAlpha" type="matrix" values="0 0 0 0 0 0 0 0 0 0 0 0 0 0 0 0 0 0 127 0" result="hardAlpha"/>
<feOffset dy="4"/>
<feGaussianBlur stdDeviation="2"/>
<feComposite in2="hardAlpha" operator="out"/>
<feColorMatrix type="matrix" values="0 0 0 0 0 0 0 0 0 0 0 0 0 0 0 0 0 0 0.25 0"/>
<feBlend mode="normal" in2="BackgroundImageFix" result="effect1_dropShadow_57_141"/>
<feBlend mode="normal" in="SourceGraphic" in2="effect1_dropShadow_57_141" result="shape"/>
</filter>
<filter id="filter1_d_57_141" x="3.18078" y="0.0772095" width="491.85" height="104.342" filterUnits="userSpaceOnUse" color-interpolation-filters="sRGB">
<feFlood flood-opacity="0" result="BackgroundImageFix"/>
<feColorMatrix in="SourceAlpha" type="matrix" values="0 0 0 0 0 0 0 0 0 0 0 0 0 0 0 0 0 0 127 0" result="hardAlpha"/>
<feOffset dy="3.2262"/>
<feGaussianBlur stdDeviation="1.6131"/>
<feComposite in2="hardAlpha" operator="out"/>
<feColorMatrix type="matrix" values="0 0 0 0 0 0 0 0 0 0 0 0 0 0 0 0 0 0 0.25 0"/>
<feBlend mode="normal" in2="BackgroundImageFix" result="effect1_dropShadow_57_141"/>
<feBlend mode="normal" in="SourceGraphic" in2="effect1_dropShadow_57_141" result="shape"/>
</filter>
<filter id="filter2_d_57_141" x="3.97412" y="114.379" width="492.45" height="99.8486" filterUnits="userSpaceOnUse" color-interpolation-filters="sRGB">
<feFlood flood-opacity="0" result="BackgroundImageFix"/>
<feColorMatrix in="SourceAlpha" type="matrix" values="0 0 0 0 0 0 0 0 0 0 0 0 0 0 0 0 0 0 127 0" result="hardAlpha"/>
<feOffset dy="4"/>
<feGaussianBlur stdDeviation="2"/>
<feComposite in2="hardAlpha" operator="out"/>
<feColorMatrix type="matrix" values="0 0 0 0 0 0 0 0 0 0 0 0 0 0 0 0 0 0 0.25 0"/>
<feBlend mode="normal" in2="BackgroundImageFix" result="effect1_dropShadow_57_141"/>
<feBlend mode="normal" in="SourceGraphic" in2="effect1_dropShadow_57_141" result="shape"/>
</filter>
<filter id="filter3_d_57_141" x="4.74792" y="114.379" width="490.902" height="98.301" filterUnits="userSpaceOnUse" color-interpolation-filters="sRGB">
<feFlood flood-opacity="0" result="BackgroundImageFix"/>
<feColorMatrix in="SourceAlpha" type="matrix" values="0 0 0 0 0 0 0 0 0 0 0 0 0 0 0 0 0 0 127 0" result="hardAlpha"/>
<feOffset dy="3.2262"/>
<feGaussianBlur stdDeviation="1.6131"/>
<feComposite in2="hardAlpha" operator="out"/>
<feColorMatrix type="matrix" values="0 0 0 0 0 0 0 0 0 0 0 0 0 0 0 0 0 0 0.25 0"/>
<feBlend mode="normal" in2="BackgroundImageFix" result="effect1_dropShadow_57_141"/>
<feBlend mode="normal" in="SourceGraphic" in2="effect1_dropShadow_57_141" result="shape"/>
</filter>
<filter id="filter4_d_57_141" x="0.0974121" y="220.663" width="493.751" height="108.275" filterUnits="userSpaceOnUse" color-interpolation-filters="sRGB">
<feFlood flood-opacity="0" result="BackgroundImageFix"/>
<feColorMatrix in="SourceAlpha" type="matrix" values="0 0 0 0 0 0 0 0 0 0 0 0 0 0 0 0 0 0 127 0" result="hardAlpha"/>
<feOffset dy="4"/>
<feGaussianBlur stdDeviation="2"/>
<feComposite in2="hardAlpha" operator="out"/>
<feColorMatrix type="matrix" values="0 0 0 0 0 0 0 0 0 0 0 0 0 0 0 0 0 0 0.25 0"/>
<feBlend mode="normal" in2="BackgroundImageFix" result="effect1_dropShadow_57_141"/>
<feBlend mode="normal" in="SourceGraphic" in2="effect1_dropShadow_57_141" result="shape"/>
</filter>
<filter id="filter5_d_57_141" x="0.871212" y="220.663" width="492.203" height="106.727" filterUnits="userSpaceOnUse" color-interpolation-filters="sRGB">
<feFlood flood-opacity="0" result="BackgroundImageFix"/>
<feColorMatrix in="SourceAlpha" type="matrix" values="0 0 0 0 0 0 0 0 0 0 0 0 0 0 0 0 0 0 127 0" result="hardAlpha"/>
<feOffset dy="3.2262"/>
<feGaussianBlur stdDeviation="1.6131"/>
<feComposite in2="hardAlpha" operator="out"/>
<feColorMatrix type="matrix" values="0 0 0 0 0 0 0 0 0 0 0 0 0 0 0 0 0 0 0.25 0"/>
<feBlend mode="normal" in2="BackgroundImageFix" result="effect1_dropShadow_57_141"/>
<feBlend mode="normal" in="SourceGraphic" in2="effect1_dropShadow_57_141" result="shape"/>
</filter>
<linearGradient id="paint0_linear_57_141" x1="44.7902" y1="31.4481" x2="23.4219" y2="31.4481" gradientUnits="userSpaceOnUse">
<stop stop-color="#61E2A4"/>
<stop offset="1" stop-color="#43A2B3"/>
</linearGradient>
<linearGradient id="paint1_linear_57_141" x1="46.3793" y1="137.185" x2="25.011" y2="137.185" gradientUnits="userSpaceOnUse">
<stop stop-color="#61E2A4"/>
<stop offset="1" stop-color="#43A2B3"/>
</linearGradient>
</defs>
</svg>
